<svg xmlns="http://www.w3.org/2000/svg" xmlns:xlink="http://www.w3.org/1999/xlink" viewBox="0 0 64 64" id="cargo"><defs><linearGradient id="a" x1="12" x2="12" y1="25.91" y2="24.15" gradientUnits="userSpaceOnUse"><stop offset="0" stop-color="#fff" stop-opacity="0"></stop><stop offset="1" stop-color="#f8ab48"></stop></linearGradient><linearGradient id="b" y1="21.91" y2="20.15" xlink:href="#a"></linearGradient><linearGradient id="c" y1="17.91" y2="16.15" xlink:href="#a"></linearGradient><linearGradient id="d" x1="22" x2="22" y1="25.73" y2="20.45" xlink:href="#a"></linearGradient><linearGradient id="e" x1="28" x2="28" y1="25.73" y2="20.45" xlink:href="#a"></linearGradient><linearGradient id="f" x1="34" x2="34" y1="25.73" y2="20.45" xlink:href="#a"></linearGradient><linearGradient id="g" x1="32" x2="32" y1="61.12" y2="4.8" xlink:href="#a"></linearGradient></defs><path fill="url(#a)" d="M10,25a1,1,0,0,1,1-1h2a1,1,0,0,1,0,2H11A1,1,0,0,1,10,25Z" opacity=".5"></path><path fill="url(#b)" d="M10,21a1,1,0,0,1,1-1h2a1,1,0,0,1,0,2H11A1,1,0,0,1,10,21Z" opacity=".5"></path><path fill="url(#c)" d="M10,17a1,1,0,0,1,1-1h2a1,1,0,0,1,0,2H11A1,1,0,0,1,10,17Z" opacity=".5"></path><path fill="url(#d)" d="M21,25V21a1,1,0,0,1,2,0v4a1,1,0,0,1-2,0Z" opacity=".5"></path><path fill="url(#e)" d="M27,25V21a1,1,0,0,1,2,0v4a1,1,0,0,1-2,0Z" opacity=".5"></path><path fill="url(#f)" d="M33,25V21a1,1,0,0,1,2,0v4a1,1,0,0,1-2,0Z" opacity=".5"></path><path fill="url(#g)" d="M23,32a1,1,0,0,0-1,1v4a1,1,0,0,0,2,0V33A1,1,0,0,0,23,32Zm6,0a1,1,0,0,0-1,1v4a1,1,0,0,0,2,0V33A1,1,0,0,0,29,32Zm0,0a1,1,0,0,0-1,1v4a1,1,0,0,0,2,0V33A1,1,0,0,0,29,32Zm-6,0a1,1,0,0,0-1,1v4a1,1,0,0,0,2,0V33A1,1,0,0,0,23,32ZM32,0A31.87,31.87,0,0,0,10.83,8c-.71.63-1.39,1.29-2.05,2S7.58,11.3,7,12s-1,1.31-1.48,2H19v2.46l-2.55,1.71A1,1,0,0,0,16,19V40H8V19a1,1,0,0,0-.45-.83L5,16.46V14.81a31.13,31.13,0,0,0-1.66,2.93A32,32,0,0,0,7,52c.56.7,1.14,1.37,1.76,2s1.35,1.36,2.07,2a32,32,0,0,0,43.72-1.29,32.41,32.41,0,0,0,5.68-7.62A32,32,0,0,0,32,0ZM20.3,18H38V28H18V19.54ZM56,30v6H53V33a1,1,0,0,0-2,0v3H47V33a1,1,0,0,0-2,0v3H41V33a1,1,0,0,0-2,0v4a.93.93,0,0,0,0,.29l-3,2.43V30ZM18,30H34V40H18Zm11,2a1,1,0,0,0-1,1v4a1,1,0,0,0,2,0V33A1,1,0,0,0,29,32Zm-6,0a1,1,0,0,0-1,1v4a1,1,0,0,0,2,0V33A1,1,0,0,0,23,32Z" opacity=".5"></path><path fill="#f8ab48" d="M15,10H9A1,1,0,0,1,9,8h6a1,1,0,0,1,0,2Z"></path><path fill="#f8ab48" d="M12 14a1 1 0 0 1-1-1V9a1 1 0 0 1 2 0v4A1 1 0 0 1 12 14zM34 30V40h1.65l.35-.28V30zm0 0V40h1.65l.35-.28V30zm23-2H35a1 1 0 0 0-1 1V41a1 1 0 0 0 1 1h1a1 1 0 0 0 .62-.22L41.35 38H57a1 1 0 0 0 1-1V29A1 1 0 0 0 57 28zM41 36a1 1 0 0 0-.62.22l-1.33 1.07-3 2.43V30H56v6zm-7-6V40h1.65l.35-.28V30zm0 0V40h1.65l.35-.28V30z"></path><path fill="#f8ab48" d="M35,28H17a1,1,0,0,0-1,1V41a1,1,0,0,0,1,1H35a1,1,0,0,0,1-1V29A1,1,0,0,0,35,28ZM34,40H18V30H34Z"></path><path fill="#f8ab48" d="M39,16H20a1,1,0,0,0-.55.17l-3,2A1,1,0,0,0,16,19V29a1,1,0,0,0,1,1H39a1,1,0,0,0,1-1V17A1,1,0,0,0,39,16ZM18,28V19.54L20.3,18H38V28Z"></path><path fill="#f8ab48" d="M29 21v4a1 1 0 0 1-2 0V21a1 1 0 0 1 2 0zM35 21v4a1 1 0 0 1-2 0V21a1 1 0 0 1 2 0zM23 21v4a1 1 0 0 1-2 0V21a1 1 0 0 1 2 0zM24 33v4a1 1 0 0 1-2 0V33a1 1 0 0 1 2 0zM30 33v4a1 1 0 0 1-2 0V33a1 1 0 0 1 2 0zM47 33v4a1 1 0 0 1-2 0V33a1 1 0 0 1 2 0zM53 33v4a1 1 0 0 1-2 0V33a1 1 0 0 1 2 0zM41 33v4a1 1 0 0 1-1 1 1 1 0 0 1-1-.71A.93.93 0 0 1 39 37V33a1 1 0 0 1 2 0zM59 47H20a1 1 0 0 1 0-2H59a1 1 0 0 1 0 2z"></path><circle cx="55" cy="41" r="1" fill="#4c4748"></circle><circle cx="50" cy="41" r="1" fill="#4c4748"></circle><circle cx="45" cy="41" r="1" fill="#4c4748"></circle><path fill="#4c4748" d="M14 17a1 1 0 0 1-1 1H11a1 1 0 0 1 0-2h2A1 1 0 0 1 14 17zM14 21a1 1 0 0 1-1 1H11a1 1 0 0 1 0-2h2A1 1 0 0 1 14 21zM14 25a1 1 0 0 1-1 1H11a1 1 0 0 1 0-2h2A1 1 0 0 1 14 25zM51 37V36H41a1 1 0 0 0-.62.22l-1.33 1.07-3 2.43-.35.28H18v1a1 1 0 0 1-1 1H36a1 1 0 0 0 .62-.22L41.35 38H52A1 1 0 0 1 51 37zm0 0V36H41a1 1 0 0 0-.62.22l-1.33 1.07-3 2.43-.35.28H18v1a1 1 0 0 1-1 1H36a1 1 0 0 0 .62-.22L41.35 38H52A1 1 0 0 1 51 37zm11.8-.6A1 1 0 0 0 62 36H41a1 1 0 0 0-.62.22l-1.33 1.07-3 2.43-.35.28H2a1 1 0 0 0-.86.5A1 1 0 0 0 1 41v2.76A4.6 4.6 0 0 0 3.56 47.9 2.63 2.63 0 0 1 5 50.24V55a1 1 0 0 0 1 1H49.4A11 11 0 0 0 60 48l.24-.86L63 37.27A1 1 0 0 0 62.8 36.4zM58.74 45l-.56 2-.11.41A9 9 0 0 1 49.4 54H7V50.24A4.6 4.6 0 0 0 4.44 46.1 2.63 2.63 0 0 1 3 43.76V42H36a1 1 0 0 0 .62-.22L41.35 38H60.68zM51 37V36H41a1 1 0 0 0-.62.22l-1.33 1.07-3 2.43-.35.28H18v1a1 1 0 0 1-1 1H36a1 1 0 0 0 .62-.22L41.35 38H52A1 1 0 0 1 51 37zm0 0V36H41a1 1 0 0 0-.62.22l-1.33 1.07-3 2.43-.35.28H18v1a1 1 0 0 1-1 1H36a1 1 0 0 0 .62-.22L41.35 38H52A1 1 0 0 1 51 37z"></path><path fill="#4c4748" d="M20,12H4a1,1,0,0,0-1,1v4a1,1,0,0,0,.34.74l.11.09L6,19.54V41a1,1,0,0,0,1,1H17a1,1,0,0,0,1-1V19.54L20.3,18l.25-.17A1,1,0,0,0,21,17V13A1,1,0,0,0,20,12ZM8,40V19a1,1,0,0,0-.45-.83L5,16.46V14H19v2.46l-2.55,1.71A1,1,0,0,0,16,19V40Z"></path></svg>