<svg xmlns="http://www.w3.org/2000/svg" enable-background="new 0 0 64 64" viewBox="0 0 64 64" id="cargo"><rect width="6.3" height="4.2" x="49.1" y="29.37" fill="#f6b64e"></rect><rect width="6.3" height="4.2" x="52.99" y="35.12" fill="#f6b64e"></rect><rect width="6.29" height="4.2" x="45.2" y="35.12" fill="#f6b64e"></rect><path fill="#34495c" d="M58.32 47.12l5.69-7.3H2.87l1.88 7.3H58.32zM8.12 40.87c.86 0 1.56.7 1.56 1.57 0 .86-.7 1.56-1.56 1.56-.86 0-1.55-.7-1.55-1.56C6.56 41.57 7.26 40.87 8.12 40.87zM45.43 29.32c1.11-2.48.86-7.19-5.69-15.84 1.22 4.39 2.07 11.57-1.25 19.98C40.42 33.18 44.1 32.29 45.43 29.32zM62.44 49c0 .42-.34.76-.77.76-2.49 0-3.7.49-4.98 1-1.28.51-2.59 1.04-5.17 1.04-2.59 0-3.91-.53-5.17-1.04-1.28-.51-2.49-1-4.99-1-2.48 0-3.7.49-4.98 1-1.27.51-2.58 1.04-5.16 1.04s-3.91-.53-5.17-1.04c-1.28-.51-2.48-1-4.98-1s-3.7.49-4.98 1c-1.27.51-2.59 1.04-5.17 1.04s-3.9-.53-5.16-1.04c-1.28-.51-2.48-1-4.98-1-.43 0-.77-.34-.77-.76 0-.43.34-.77.77-.77 2.78 0 4.25.58 5.55 1.1 1.24.5 2.31.92 4.59.92 2.3 0 3.37-.43 4.6-.92 1.3-.52 2.76-1.1 5.55-1.1 2.78 0 4.25.58 5.55 1.1 1.24.5 2.31.92 4.6.92 2.29 0 3.36-.43 4.59-.92 1.3-.52 2.76-1.1 5.55-1.1 2.79 0 4.26.58 5.56 1.1 1.24.5 2.31.92 4.6.92s3.37-.43 4.6-.92c1.29-.52 2.76-1.1 5.55-1.1C62.1 48.23 62.44 48.57 62.44 49z"></path><path fill="#34495c" d="M62.44,52.18c0,0.43-0.34,0.77-0.77,0.77c-2.49,0-3.7,0.49-4.98,1c-1.28,0.51-2.59,1.03-5.17,1.03
		c-2.59,0-3.9-0.52-5.16-1.03c-1.29-0.51-2.5-1-5-1c-2.48,0-3.7,0.49-4.98,1c-1.28,0.51-2.59,1.03-5.16,1.03
		c-2.59,0-3.9-0.52-5.16-1.03c-1.29-0.51-2.49-1-4.99-1s-3.7,0.49-4.98,1c-1.28,0.51-2.59,1.03-5.17,1.03
		c-2.58,0-3.89-0.52-5.15-1.03c-1.29-0.51-2.49-1-4.99-1c-0.43,0-0.77-0.34-0.77-0.77c0-0.42,0.34-0.77,0.77-0.77
		c2.78,0,4.25,0.59,5.55,1.11c1.24,0.5,2.31,0.92,4.59,0.92s3.36-0.43,4.59-0.92c1.31-0.52,2.77-1.11,5.56-1.11
		c2.78,0,4.25,0.59,5.55,1.11c1.25,0.5,2.32,0.92,4.6,0.92s3.36-0.43,4.59-0.92c1.3-0.52,2.76-1.11,5.55-1.11
		c2.79,0,4.26,0.59,5.56,1.11c1.24,0.5,2.31,0.92,4.6,0.92c2.29,0,3.36-0.43,4.59-0.92c1.3-0.52,2.77-1.11,5.56-1.11
		C62.1,51.41,62.44,51.76,62.44,52.18z"></path><polygon fill="#34495c" points="25.89 28.58 9.25 28.58 8.18 31.99 26.97 31.99"></polygon><path fill="#34495c" d="M28.89 33.52H5.92l-1.51 4.76h25.97L28.89 33.52zM11.32 36.68H8.37c-.34 0-.61-.27-.61-.61 0-.33.27-.61.61-.61h2.94c.33 0 .6.28.6.61C11.92 36.41 11.65 36.68 11.32 36.68zM18.87 36.68h-2.94c-.33 0-.6-.27-.6-.61 0-.33.27-.61.6-.61h2.94c.34 0 .61.28.61.61C19.48 36.41 19.21 36.68 18.87 36.68zM26.43 36.68h-2.94c-.34 0-.61-.27-.61-.61 0-.33.27-.61.61-.61h2.94c.34 0 .61.28.61.61C27.04 36.41 26.76 36.68 26.43 36.68zM38.06 10.72c0-.16-.05-.31-.14-.43-.1-.17-.27-.28-.47-.32-.06-.01-.11-.02-.17-.02-.06 0-.13.01-.2.03-.06.01-.12.04-.18.07-.04.02-.07.05-.1.08-.03.02-.06.04-.08.07-.03.02-.05.05-.06.08-.06.07-.1.17-.12.27 0 .05-.01.1-.01.16v27.55h1.53V10.72z"></path></svg>